<?xml version="1.0" encoding="UTF-8" standalone="no"?>
<!DOCTYPE svg PUBLIC "-//W3C//DTD SVG 1.1//EN" "http://www.w3.org/Graphics/SVG/1.1/DTD/svg11.dtd">
<svg width="100%" height="100%" viewBox="0 0 2500 2500" version="1.1" xmlns="http://www.w3.org/2000/svg" xmlns:xlink="http://www.w3.org/1999/xlink" xml:space="preserve" xmlns:serif="http://www.serif.com/" style="fill-rule:evenodd;clip-rule:evenodd;stroke-linejoin:round;stroke-miterlimit:2;">
    <path d="M1250,0C560.801,0 0,558.916 0,1250C0,1939.2 558.916,2500 1250,2500C1939.2,2500 2500,1941.08 2500,1250C2500,558.916 1939.2,0 1250,0ZM2094.03,1469.03C2094.03,1544.56 2050.61,1610.65 1965.63,1625.75C1818.35,1652.19 1508.68,1667.3 1250,1667.3C991.309,1667.3 681.641,1652.19 534.365,1625.75C449.404,1610.65 405.967,1544.56 405.967,1469.03L405.967,981.875C405.967,906.348 464.502,836.484 534.365,825.146C577.793,817.598 679.756,810.049 759.072,810.049C789.277,810.049 813.818,832.705 813.818,868.584L813.818,1210.35L1251.88,1200.91L1689.95,1210.35L1689.95,868.584C1689.95,832.705 1714.5,810.049 1744.72,810.049C1824.01,810.049 1925.99,817.598 1969.41,825.146C2041.16,836.475 2097.81,906.348 2097.81,981.875C2094.03,1142.37 2094.03,1306.65 2094.03,1469.03Z" style="fill:rgb(237,34,38);fill-rule:nonzero;"/>
    <path d="M2094.03,1469.03C2094.03,1544.56 2050.61,1610.65 1965.63,1625.75C1818.35,1652.19 1508.68,1667.3 1250,1667.3C991.309,1667.3 681.641,1652.19 534.365,1625.75C449.404,1610.65 405.967,1544.56 405.967,1469.03L405.967,981.875C405.967,906.348 464.502,836.484 534.365,825.146C577.793,817.598 679.756,810.049 759.072,810.049C789.277,810.049 813.818,832.705 813.818,868.584L813.818,1210.35L1251.88,1200.91L1689.95,1210.35L1689.95,868.584C1689.95,832.705 1714.5,810.049 1744.72,810.049C1824.01,810.049 1925.99,817.598 1969.41,825.146C2041.16,836.475 2097.81,906.348 2097.81,981.875C2094.03,1142.37 2094.03,1306.65 2094.03,1469.03Z" style="fill:white;fill-rule:nonzero;"/>
</svg>
